{"title":"Creature with the Atom Brain(1955)MPEG-4[DaScubaDude]","uid":14116129,"size":699112298,"categoryP":"video","categoryS":"movies","magnet":"?xt=urn:btih:3a3799a991713470a9203ca348a7213282b1dd63&amp;dn=Creature+with+the+Atom+Brain%281955%29MPEG-4%5BDaScubaDude%5D&amp;tr=udp%3A%2F%2Ftracker.leechers-paradise.org%3A6969&amp;tr=udp%3A%2F%2Fzer0day.ch%3A1337&amp;tr=udp%3A%2F%2Fopen.demonii.com%3A1337&amp;tr=udp%3A%2F%2Ftracker.coppersurfer.tk%3A6969&amp;tr=udp%3A%2F%2Fexodus.desync.com%3A6969","seeders":2,"leechers":0,"uploader":"dascuba","files":1,"time":1459415741,"description":"Creature with the Atom Brain (1955)\r\nUnrated | 1h 9min | Crime, Horror, Sci-Fi | July 1955 (USA)\r\nAn ex-Nazi mad scientist uses radio-controlled atomic-powered zombies in his quest to help an exiled American gangster return to power.\r\nDirector: Edward L. Cahn\r\nWriters: Curt Siodmak (story), Curt Siodmak (screenplay)\r\nStars: Richard Denning, Angela Stevens, S. John Launer\r\n\r\nGeneral\r\nComplete name                            : The Giant ClawICONS_OF_HORROR_Title15.mp4\r\nFormat                                   : MPEG-4\r\nFormat profile                           : Base Media\r\nCodec ID                                 : isom\r\nFile size                                : 719 MiB\r\nDuration                                 : 1h 14mn\r\nOverall bit rate                         : 1 356 Kbps\r\nMovie name                               : ICONS_OF_HORROR\r\nGenre                                    : Horror\r\nWriting application                      : Lavf54.6.100\r\n\r\nVideo\r\nID                                       : 1\r\nFormat                                   : AVC\r\nFormat/Info                              : Advanced Video Codec\r\nFormat profile                           :   \r\nFormat settings, CABAC                   : No\r\nFormat settings, ReFrames                : 6 frames\r\nCodec ID                                 : avc1\r\nCodec ID/Info                            : Advanced Video Coding\r\nDuration                                 : 1h 14mn\r\nBit rate                                 : 1 210 Kbps\r\nWidth                                    : 720 pixels\r\nHeight                                   : 404 pixels\r\nDisplay aspect ratio                     : 16:9\r\nFrame rate mode                          : Constant\r\nFrame rate                               : 29.970 fps\r\nColor space                              : YUV\r\nChroma subsampling                       : 4:2:0\r\nBit depth                                : 8 bits\r\nScan type                                : Progressive\r\nBits/(Pixel*Frame)                       : 0.139\r\nStream size                              : 642 MiB (89%)\r\n\r\nAudio\r\nID                                       : 2\r\nFormat                                   : AAC\r\nFormat/Info                              : Advanced Audio Codec\r\nFormat profile                           : LC\r\nCodec ID                                 : 40\r\nDuration                                 : 1h 14mn\r\nBit rate mode                            : Constant\r\nBit rate                                 : 139 Kbps\r\nChannel(s)                               : 2 channels\r\nChannel positions                        : Front: L R\r\nSampling rate                            : 44.1 KHz\r\nCompression mode                         : Lossy\r\nStream size                              : 73.5 MiB (10%)","torrent":{"xt":"urn:btih:3a3799a991713470a9203ca348a7213282b1dd63","amp;dn":"Creature+with+the+Atom+Brain%281955%29MPEG-4%5BDaScubaDude%5D","amp;tr":["udp%3A%2F%2Ftracker.leechers-paradise.org%3A6969","udp%3A%2F%2Fzer0day.ch%3A1337","udp%3A%2F%2Fopen.demonii.com%3A1337","udp%3A%2F%2Ftracker.coppersurfer.tk%3A6969","udp%3A%2F%2Fexodus.desync.com%3A6969"],"infoHash":"3a3799a991713470a9203ca348a7213282b1dd63","infoHashBuffer":{"type":"Buffer","data":[58,55,153,169,145,113,52,112,169,32,60,163,72,167,33,50,130,177,221,99]},"announce":[],"urlList":[]}}